<?xml version="1.0" standalone="no"?>
<!DOCTYPE svg PUBLIC "-//W3C//DTD SVG 20010904//EN"
 "http://www.w3.org/TR/2001/REC-SVG-20010904/DTD/svg10.dtd">
<svg version="1.0" xmlns="http://www.w3.org/2000/svg"
 width="387.000000pt" height="387.000000pt" viewBox="0 0 387.000000 387.000000"
 preserveAspectRatio="xMidYMid meet">
<metadata>
Created by potrace 1.11, written by Peter Selinger 2001-2013
</metadata>
<g transform="translate(0.000000,387.000000) scale(0.100000,-0.100000)"
fill="#000000" stroke="none">
<path d="M1447 3514 c-1 -1 -36 -4 -77 -8 -426 -36 -698 -239 -747 -558 -4
-24 -7 -488 -7 -1033 1 -911 2 -995 18 -1055 67 -248 265 -410 580 -474 122
-25 204 -31 386 -27 l45 1 -35 22 c-50 31 -129 97 -169 141 -32 35 -98 123
-103 139 -2 3 -20 9 -40 12 -104 16 -217 83 -265 155 -70 105 -67 51 -67 1106
1 944 1 950 22 1008 40 111 131 197 246 233 44 14 55 23 81 66 43 72 123 151
211 208 42 28 81 50 87 50 6 0 7 3 3 7 -6 6 -162 12 -169 7z"/>
<path d="M2257 3515 c-1 -1 -40 -5 -87 -8 -79 -6 -234 -34 -305 -55 -59 -18
-173 -82 -235 -132 -107 -85 -172 -186 -212 -327 -22 -78 -22 -78 -22 -1058
l0 -980 23 -80 c78 -277 304 -450 656 -500 28 -4 59 -9 70 -12 11 -2 88 -4
170 -4 475 -1 792 165 895 470 10 32 23 73 27 92 9 40 11 1957 2 2009 -42 241
-189 412 -439 508 -56 21 -125 41 -170 48 -14 2 -34 6 -45 9 -46 10 -319 26
-328 20z m248 -310 c66 -12 162 -46 205 -73 93 -60 139 -126 170 -246 19 -74
20 -113 20 -949 -1 -745 -3 -881 -16 -937 -41 -176 -138 -274 -317 -320 -92
-23 -261 -35 -250 -17 3 7 17 29 30 49 13 21 35 73 50 115 26 77 26 81 27 381
l2 302 -162 0 -162 0 -4 -267 c-4 -250 -5 -272 -27 -325 -25 -65 -113 -168
-142 -168 -48 0 -125 101 -162 213 -20 61 -21 82 -23 932 -2 934 0 972 48
1077 30 65 102 148 128 148 29 0 126 -113 149 -174 29 -77 29 -85 30 -348 l1
-238 163 0 163 0 -2 303 c-1 296 -2 304 -27 382 -15 44 -40 102 -57 128 l-30
48 82 -5 c46 -4 97 -9 113 -11z"/>
</g>
</svg>
